{"title":"Omarion Ft. Chris Brown - Post To Be [Music Video] 1080p [Sbyky]","uid":11746255,"size":69755145,"categoryP":"video","categoryS":"music_videos","magnet":"?xt=urn:btih:f0b91b2feb8936d3eaf0fb8d588477f6098315eb&amp;dn=Omarion+Ft.+Chris+Brown+-+Post+To+Be+%5BMusic+Video%5D+1080p+%5BSbyky%5D&amp;tr=udp%3A%2F%2Ftracker.openbittorrent.com%3A80&amp;tr=udp%3A%2F%2Fopen.demonii.com%3A1337&amp;tr=udp%3A%2F%2Ftracker.coppersurfer.tk%3A6969&amp;tr=udp%3A%2F%2Fexodus.desync.com%3A6969","seeders":19,"leechers":4,"uploader":"Sbyky","files":1,"time":1426028192,"description":"General\nComplete name                            : Omarion Ft. Chris Brown &amp; Jhene Aiko - Post To Be [Music Video] 1080p [Sbyky].mp4\nFormat                                   : MPEG-4\nFormat profile                           : Base Media\nCodec ID                                 : isom\nFile size                                : 66.5 MiB\nDuration                                 : 3mn 46s\nOverall bit rate mode                    : Variable\nOverall bit rate                         : 2 463 Kbps\nEncoded date                             : UTC 2015-02-16 23:25:19\nTagged date                              : UTC 2015-02-16 23:25:19\n\nVideo\nID                                       : 1\nFormat                                   : AVC\nFormat/Info                              : Advanced Video Codec\nFormat profile                           : &lt;a class=&quot;__cf_email__&quot; href=&quot;/cdn-cgi/l/email-protection&quot; data-cfemail=&quot;fbb3929c93bbb7cfd5cb&quot;&gt;[email&amp;#160;protected]&lt;/a&gt;&lt;script cf-hash='f9e31' type=&quot;text/javascript&quot;&gt;\n/* &lt;![CDATA[ */!function(){try{var t=&quot;currentScript&quot;in document?document.currentScript:function(){for(var t=document.getElementsByTagName(&quot;script&quot;),e=t.length;e--;)if(t[e].getAttribute(&quot;cf-hash&quot;))return t[e]}();if(t&amp;&amp;t.previousSibling){var e,r,n,i,c=t.previousSibling,a=c.getAttribute(&quot;data-cfemail&quot;);if(a){for(e=&quot;&quot;,r=parseInt(a.substr(0,2),16),n=2;a.length-n;n+=2)i=parseInt(a.substr(n,2),16)^r,e+=String.fromCharCode(i);e=document.createTextNode(e),c.parentNode.replaceChild(e,c)}}}catch(u){}}();/* ]]&gt; */&lt;/script&gt;\nFormat settings, CABAC                   : Yes\nFormat settings, ReFrames                : 2 frames\nCodec ID                                 : avc1\nCodec ID/Info                            : Advanced Video Coding\nDuration                                 : 3mn 46s\nBit rate                                 : 2 333 Kbps\nWidth                                    : 1 920 pixels\nHeight                                   : 1 080 pixels\nDisplay aspect ratio                     : 16:9\nFrame rate mode                          : Variable\nFrame rate                               : 23.976 fps\nMinimum frame rate                       : 23.974 fps\nMaximum frame rate                       : 23.981 fps\nColor space                              : YUV\nChroma subsampling                       : 4:2:0\nBit depth                                : 8 bits\nScan type                                : Progressive\nBits/(Pixel*Frame)                       : 0.047\nStream size                              : 63.0 MiB (95%)\nEncoded date                             : UTC 2015-02-16 23:25:19\nTagged date                              : UTC 2015-02-16 23:25:19\n\nAudio\nID                                       : 2\nFormat                                   : AAC\nFormat/Info                              : Advanced Audio Codec\nFormat profile                           : LC\nCodec ID                                 : 40\nDuration                                 : 3mn 46s\nBit rate mode                            : Variable\nBit rate                                 : 126 Kbps\nChannel(s)                               : 2 channels\nChannel positions                        : Front: L R\nSampling rate                            : 44.1 KHz\nCompression mode                         : Lossy\nStream size                              : 3.39 MiB (5%)\nEncoded date                             : UTC 2015-02-16 23:24:08\nTagged date                              : UTC 2015-02-16 23:24:08\n\nShared By Sbyky","torrent":{"xt":"urn:btih:f0b91b2feb8936d3eaf0fb8d588477f6098315eb","amp;dn":"Omarion+Ft.+Chris+Brown+-+Post+To+Be+%5BMusic+Video%5D+1080p+%5BSbyky%5D","amp;tr":["udp%3A%2F%2Ftracker.openbittorrent.com%3A80","udp%3A%2F%2Fopen.demonii.com%3A1337","udp%3A%2F%2Ftracker.coppersurfer.tk%3A6969","udp%3A%2F%2Fexodus.desync.com%3A6969"],"infoHash":"f0b91b2feb8936d3eaf0fb8d588477f6098315eb","infoHashBuffer":{"type":"Buffer","data":[240,185,27,47,235,137,54,211,234,240,251,141,88,132,119,246,9,131,21,235]},"announce":[],"urlList":[]}}